<svg xmlns="http://www.w3.org/2000/svg" xmlns:xlink="http://www.w3.org/1999/xlink" viewBox="0 0 760.45 609.38"><defs><style>.cls-1{fill:none;}.cls-2{clip-path:url(#clip-path);}.cls-3{fill:#00acbe;}.cls-4{fill:#6ca95b;}.cls-5{fill:#fff;}</style><clipPath id="clip-path"><path class="cls-1" d="M341,234.67c8.63,1.82,17.34,3.82,25.77,5.75,31.64,7.26,61.51,14.13,92.08,13a174.37,174.37,0,0,0,105.64-41.1l5.9-5C559.56,120.35,486.45,53,397.81,53c-96.13,0-174.06,79.15-174.06,176.77,0,1.57.08,3.12.12,4.68C264.06,221.39,307.48,227.63,341,234.67Z"/></clipPath></defs><title>teste finalAtivo 18</title><g id="Camada_2" data-name="Camada 2"><g id="Camada_1-2" data-name="Camada 1"><g class="cls-2"><path class="cls-3" d="M642.68,263c-1.8-1.69-4.72-3.53-5.83-5.08s-1.25,0-2.92-3.53-2.08-5.36-3.2-6.91-.83-2.26-1.66-3.53a3.84,3.84,0,0,0-2.23-1.55c-1.66.28-1.94,2-1.8,3s-.28,3.95-.28,5.37-.28,2.82-1,2.68a14,14,0,0,1-4.17-2.12c-1.53-1.13-3.89-.85-4.45-2.26s.28-2.82,1.11-3.95,2-1.69.84-2.11a10.45,10.45,0,0,0-6.11-.43c-2.23.71-4.59.28-5.28,1.69s.27,3.25-.84,4-.14.42-2.22-.43-6.11,1.7-6.81,2.82-3.47,2.4-3.61,3.81.42,3.25-.56,3.53-2.91-.42-5.41,1-2.92.56-5,3.24-2.36,2.54-2.08,4.38.83.56.14,3.81-.14,1.27,1.67,5.78,1.52,5.08,1.11,5.93-.7,2.68.28,3.39,1,2.11,2.64,1.12a32.25,32.25,0,0,1,6.66-2.82c3.06-1,4.59,0,6.26-2.11s2.22-2.83,6.25-3.25,3.61-1.55,7.64.85,4.72,2.25,5.83,1.55.84.42,2,2,3.75,6.92,6.11,7.06,2.5-.71,4.59-.85.83.71,2.78.85,1.25-.14,3.47-1.13,4-.85,3.89-4.23,1-4.09,2.08-6.07a16.68,16.68,0,0,0,2.23-9C644.49,265.72,644.49,264.73,642.68,263Z"/><path class="cls-3" d="M638.05,293.52a3.57,3.57,0,0,0-1.48.94c-.46.37-1.58.19-1.58.19l-1.11.18c-.83.19-.37-.37-1.94-.47s-2.32-.28-2.5.29.37,1.41,1,2.35.64,1.69,1.76,1.69,2.31.57,3,.28a7.16,7.16,0,0,0,2-2.07c.28-.47.92-.47,1.11-1.69S639.16,293.05,638.05,293.52Z"/><path class="cls-3" d="M677.42,291.26c-.7-.14-.42.42-1.26,1.13a12.58,12.58,0,0,0-2.63,2.82c-.7,1.13-1.53,1.41-2.64,2.4s-2.51,2.12-3.2,2.68a2.57,2.57,0,0,0-.28,3,2.91,2.91,0,0,0,1.67-.28c.69-.42,1.67.14,3.19-.56s1.26-.85,1.67-2.12,1-1.55,2.09-2.82a23.47,23.47,0,0,1,2.91-2.68,2.44,2.44,0,0,0,.42-3C678.94,291.12,678.11,291.4,677.42,291.26Z"/><path class="cls-3" d="M684.5,284.35a4.66,4.66,0,0,1-2.22-.71,16.93,16.93,0,0,1-1.81-2.68,4.84,4.84,0,0,0-2.22-1.83c-.56-.29.28,1.55.55,2.39a33.51,33.51,0,0,0,1.67,3.25c.28.56-1.25,2.26-1.25,3.39s1.53.28,1.95.56a5.23,5.23,0,0,1,1,1.27,1.43,1.43,0,0,0,1.11-1.55c-.14-1.27.14-.85.42-1.41s1.66-.14,2.36-.57.42-2-.14-2.54S684.5,284.35,684.5,284.35Z"/><path class="cls-3" d="M636.29,235.67c-2.64-2.54-6-5.22-6.81-5.93s-1.66-1.83-3.47-2a12.28,12.28,0,0,1-4.45-1.13c-1.66-.71-1.38-1.55-2.64-.71s-1.8,1-2.91,1.7-2.23.42-2.36-.15-.14-1.69-.7-2-.42-.57-1.53-.57a14.27,14.27,0,0,0-2.5,0c-.42.15-2.08-.7-1,.57a7.93,7.93,0,0,0,2.22,1.83c.42.29,1-.14,1.25.71a6.92,6.92,0,0,0,1.11,1.83,17.31,17.31,0,0,1,2.37.57l3.05,1.27s2.5,1,2.78,1.69a4.2,4.2,0,0,1,.28,1.83c0,.71-1,.71-1.39.85s-.7-.14-.83.42,1.94,1.56,1.94,1.56,2.36-.85,3.06-.29a4,4,0,0,0,2.64,1.42c1.53.14,2.08,0,2.64-.71s1.66-2.54,2.36-2.54a2.82,2.82,0,0,1,2.5,1.13,10.27,10.27,0,0,0,2.64,2.26,2.22,2.22,0,0,0,2.36.14C639.07,238.63,638.93,238.21,636.29,235.67Z"/><path class="cls-3" d="M603.71,230.38a5.72,5.72,0,0,1,2.57-.43,4.66,4.66,0,0,0,2,.14c.41-.14,1.13-.14.74-.35s-1-.94-1.58-.84-.27-.19-1.66-.38-1.86-.19-2.13.09-1.49.78-1.35,1.27S603,230.66,603.71,230.38Z"/><path class="cls-3" d="M601,230a.76.76,0,0,0-.55-.77c-.58-.15-.91-.42-1.25-.14s-.7.49-.56.77,1,.5,1.39.5S600.93,230.38,601,230Z"/><path class="cls-3" d="M588.29,229.81c-.14.78-.63.43,0,1.48s.69.07.83,1.34a9.91,9.91,0,0,1-.07,2.47s-1.11,1-.13,1.41,1.11.57,1.59.29.56-.5.49-1.13.21-1.13.21-2.33a7.36,7.36,0,0,1,.14-2.68c.27-.49,1-.14,1,.49a2.93,2.93,0,0,0,.76,2.47,1.86,1.86,0,0,0,2,.5c1-.15,1-1.13.69-1.27s-1.11-.57-1.18-1.2a6.42,6.42,0,0,0-.14-1.91c-.28-.91-.34-.63-.55-1.2s.55-.42,1.46-.84,1.25-.5,1.45-1,.07-1.13-.48-1-.9-.07-1.39.35a2.38,2.38,0,0,1-1.74.78c-1,.07-1.18.14-1.46-.28a2.14,2.14,0,0,1-.34-1.48c.14-.29.69-1.77,1.45-1.49s.91.92,1.88.71a13.15,13.15,0,0,1,2-.56c.63,0,1,.21,1.6.21a2.92,2.92,0,0,0,1.18-.28l.56-.78a1.71,1.71,0,0,0-1.88-.92,9.06,9.06,0,0,1-1.94.14c-.9-.07-1,.36-1.81.07s-.48-.49-1.46-.35a4,4,0,0,0-1.66.42c-.56.29-.63.22-.91.57a2.47,2.47,0,0,0-.76,2.19,5.6,5.6,0,0,1,.35,2.11c-.07.57-.56.85-1,1.41S588.43,229,588.29,229.81Z"/><path class="cls-3" d="M598.85,238.28a3.18,3.18,0,0,1-1.53.77,8.59,8.59,0,0,0-1.67.36c-.2.14-.9.49-.62.91s1.8.64,1.8.64.63-.85,1.19-1,1.52.07,1.73-.28.56-1.27.35-1.34C599.48,238.14,599.13,237.93,598.85,238.28Z"/><path class="cls-3" d="M589,239.55c-.55-.43-.9-.71-1.18-.5s-.9.78-.14,1.2,1.46.07,1.81.5,1.18.07,1.18.07c0-.43.14-.64-.35-.71A2.38,2.38,0,0,1,589,239.55Z"/><path class="cls-3" d="M583.43,238.21c-.56.14-1.18.49-.42.84a6,6,0,0,0,2.43.22c.42,0,.77-.15.84-.36s0-.49-1-.49S584,238.07,583.43,238.21Z"/><path class="cls-3" d="M580.3,238.07s-.9-1.27-1.25-1.27-.9.42-1.6-.29-.83-1-2.5-.91a10,10,0,0,1-3.4-.28c-.56-.15-.21-.36-1.46-.71a4.91,4.91,0,0,0-2.57-.21c-.76.14-2.08.14-1.53,1.06s2.57,1.27,3.54,1.62a8.22,8.22,0,0,0,3.89.92,4.37,4.37,0,0,1,2.51.21c1,.28,1.18-.21,2.5.07S580.16,238.42,580.3,238.07Z"/><path class="cls-3" d="M566.34,232.07c-.14-.56.07-.56.14-1.55s.14-.92-.56-1.84-.76-.35-1.6-1a3.63,3.63,0,0,1-1.32-2c-.41-1-.69-1.13-1.87-2.26a5.83,5.83,0,0,0-2.5-1.55c-1-.42-1.6-1.9-2.29-2.68s-1.88-1.69-2.71-2.47a25.43,25.43,0,0,0-2.37-1.9c-1.11-.85-1.32-.78-1.87-.64s-.42,1.48-.21,2a4.66,4.66,0,0,0,1.6,1.48c.48.28.69.92,1.39,1.9a43.1,43.1,0,0,0,3,3.32s1.05,3,1.74,4.58,2.43,2.12,2.92,2.69,2.22,2.68,2.22,2.68a21,21,0,0,0,1.88,1.48c.76.49.9-.43,1.66-1a1.39,1.39,0,0,0,.77-.21C566.55,232.92,566.48,232.63,566.34,232.07Z"/><path class="cls-3" d="M571.06,224c.28.7,1.46,3,2.64,3.67a28.71,28.71,0,0,0,2.85,1.41c1,.49,1.6,0,2.5.49a7.68,7.68,0,0,0,2.5,1.06c.91.14.56.63,1.39.07.52-.35-.35-1.27,0-2.26a5.39,5.39,0,0,1,1.6-2.11,5.63,5.63,0,0,0,.76-1.7s-.62-1.69,0-2.11,1.6,0,1.18-1.06-.76-.64-.83-2-.14-1.9.14-2.25.56-.43,1-1,1-.43.35-1.34-.56-1.34-1.32-2-.49-1.41-1.46-1a10.66,10.66,0,0,0-1.74,1s-.76,2.12-1.25,2.4-1.87,1.34-1.87,1.34a11.55,11.55,0,0,1-2.43,3,10.39,10.39,0,0,1-2.37,1s-1.45.85-1.8.57,0-.85-1-.57S570.78,223.32,571.06,224Z"/><path class="cls-3" d="M603,220.43c-1,0-.63,1.48-.56,2.4s.28,1.62.77,1.27a1.1,1.1,0,0,0,.55-1.2c-.07-.57-.35-.14-.14-1.13S603.36,220.43,603,220.43Z"/><path class="cls-3" d="M595.24,210.91c.62-.07.55.07.9.63s.28,1.34,1.11,1.27c0,0,1.25.07,1.74-.56s.35-1.84.69-2.4a2.35,2.35,0,0,0-.28-2.4c-.55-.71-.9.21-1.45.77s-1.39.43-2.09.43a4.24,4.24,0,0,0-1.73.7,6.44,6.44,0,0,0-.42,1.77C593.78,211.54,594.61,211,595.24,210.91Z"/><path class="cls-3" d="M592.81,207c.2,1,1.18.35,1.59.42a2,2,0,0,0,.56-.78c.14-.42.35-.49.69-.77s.14-1.06-.14-1.41-1.11-.43-1.11-.43a11.76,11.76,0,0,1-1.32-1.13c-.21-.28-.9-.56-2.15-.35s-.14,1,1.39,2.12S592.6,206,592.81,207Z"/><path class="cls-3" d="M589.33,198.14c.21,1.13.42.35,1.11,1.27s1.39.49,2.37.63.27.57.76,1.27.83.42,1.88.92a1.79,1.79,0,0,1,.83,2.33,4.29,4.29,0,0,0,1.53.14,1.41,1.41,0,0,0,1-.78c.14-.42-.21-.7-.56-1.27s-1-.77-1.52-1.62-.49-.57-1.53-1.27-2-.35-2.5-.92-.42-1.27-.56-2.4.07-1,.63-1.9.07-1.41.07-1.41a2,2,0,0,0-1.25-.57c-.7,0-1,1-1.19,1.77a10.57,10.57,0,0,1-.83,1.9A3.11,3.11,0,0,0,589.33,198.14Z"/><path class="cls-3" d="M587.8,205.9a2.72,2.72,0,0,1-1.11,1.34.91.91,0,0,0,0,1.27c.28.35.7-.07.91-.21a11.35,11.35,0,0,0,1.52-2.26,1.87,1.87,0,0,0-.55-1.2C588,204.27,588.08,205.12,587.8,205.9Z"/><path class="cls-3" d="M704.55,86A69.77,69.77,0,0,1,697,83a65.08,65.08,0,0,1-6.86-3.76c-2-1.32-4.07-2.07-5.55-3.39s-1.67-2.44-4.82-2.44-5.19-.38-5.74.19-.37,2.07-2,2.44-1.85-1.32-3.89-1.69a41.55,41.55,0,0,0-7.22-.38c-2.78,0-5.19-.37-5.38-1.13s1.3-2.44-1.48-4-5.93-2.25-8.15-1.88-3.7,1.51-5.19-.19-2.4-3.95-3.89-4.51-4.44-1.88-5.74-1.88-3.15-2.07-4.81-2.07-3.34-1.7-3.71.19,1.67,3.57-.18,4.32-2.6.76-5.19.57a50.22,50.22,0,0,1-5.56-.94c-1.3-.19-1.48-2.07-2.59-.38s-.37,2.63-1.85,2.26-4.45-.75-3.52-2.82,2.22-2.45,1.85-3.77-2-4.32-2.78-4.51a19.13,19.13,0,0,0-4.82-.38A8.1,8.1,0,0,0,594.7,54a10,10,0,0,1-5.18,1.32c-2.23,0-3.71.19-3.34-.94s1.11-2.45-.37-2.45-5,0-7-.19S576,50.46,573.22,51s-3.34,2.26-5.75,1.69-.18-3.38,4.82-5.26,7.22-4.71,7.78-6.4-6.16-4.75-8.24-4.89-2.09-1-2.5.28-2,2.54-2.92,1-1.95-3.11-2.5-3.25-2.5-2.25-4.31,0-1.94,3.25-3.33,3.53-4.87.28-6.39,1A27.49,27.49,0,0,1,542.1,40c-2,0-3.89-.71-5.7.28s-2.78,2.26-2.36,3.39,1.11,1.69.69,3.24-1.11,1.55-2.64,2-2.92,0-5.14.42-3.19-1.83-3.61,0a4.21,4.21,0,0,0,2.08,4.66c1.67.84,3.2.56,2.64,2s-2.5,2.12-3.33,1.41-1.53-1.83-3.2-2-1.8-1-3.47-.28-.56,3.1-1.39,3.38-1.94-.84-1.67-2.26S516.25,53,515,53s-2.64-.57-2.36,1.55-.42,4.09,0,5.5,1.11,3.11,1.39,4.38,1.67,1.41,3.47,2.26,2,4,2,4-1-2.4-2.36-2.26-2.92-1.55-3.06,0,.7,2.11-.55,3.67A14.19,14.19,0,0,1,509,75.81c-1.53.7-3.34.14-3.06-.57s3.2-.56,4.31-1.55A4,4,0,0,0,512,70.16c-.14-1.55-.7-2.11-1.39-3.52a9.36,9.36,0,0,1-1.11-4.8c0-2.26-1.12-1.55-.56-4s1.53-2.82,1.81-4.24,1-3.24-.56-3.38S507.36,49,505.56,50s-2.64-.15-2.78,2.39.83,3.67-.14,5.08-2.09.15-1.67,2.4.56,3.25,1.67,4.8,2.36,2,2.08,3.25-1,3.8-1.94,1.69a11.74,11.74,0,0,0-4.31-4.66,8,8,0,0,0-3.89-1.55C491.94,63,491,62,490.27,63s.42,1.41.84,2.54.83,1.83-2.09,2-7.36,1.27-7.78,1.13.7-1.69-1.8-1.69A7.47,7.47,0,0,0,474.16,69c-.7.85-3.06,1.7-4.87,2.83s-4.58,1-5.27,1.55-.28,1-1.81,1.83-3.47-.14-4.17.57-1.94,2.82-3.33,3.67-2.5,0-3.06,1.12,2.22,1.84,1.25,3a3.52,3.52,0,0,1-4.58,0c-1.12-1.13-.7-1.13-1-4.09s.56-3.25-.83-4.66A5,5,0,0,1,445,72.14a8,8,0,0,0,4,2.11c2.22.29,3.75,1,5.28.43s2.5-1.7,3.89-2.54,2.78-2.26.69-3.53-3.33-1.27-5.69-1.83a25.28,25.28,0,0,1-5.84-2.26c-2.36-1.13-3,.42-4-1.41s-1.11-2.12-3.19-1.84,1.8-2.39,0-3-2.36-1.13-3.75-.85-.56-.28-2.92,1.13,1.53-2-.56-2.25-2.5.28-4,1.83-4.59,3.24-6.67,4.37a16.49,16.49,0,0,0-6.53,7.9c-1.39,3.67-5.84,10.68-9.36,13.69s-7.78,2.07-8.15,4-1.11,6.77-.18,9.41.74,3,2.4,2.07A24.34,24.34,0,0,0,405.76,96c1.48-1.5,2.4-1.88,3,.19s2,5.27,2.59,7.15-1.11,4.33.74,4a4.56,4.56,0,0,0,3.71-3.57,13.21,13.21,0,0,1,2.59-5.84c1.86-2.44,3-3.57,3.15-4.13s-2.59-1.51-2.59-3,.74-5.08,2.22-5.84,4.45-2.07,4.63-2.82-.74-3.38.56-4.7,3.7-1.88,5.19-.38,1.48,3-.38,3.76-1.66,2.07-3.14,3.58-3.34.75-2.78,4-.19,6.4,1.85,5.83,4.82-.75,7-1.13,5-.75,5.74.19-1.3,2.26-3.52,2.26-5.37-.75-6.85.19-.93,1.13.18,3,2.23,2.44.93,3.38-2.78,1.7-3.34.38-1.11-3.76-1.85-1.32,0,3.77,0,5.08-1.85,2.45-3.89,2.64-3-1.89-5,.75-5.37,1.88-7.41,1.69a3.49,3.49,0,0,1-3.33-4c.37-2.07,2-3.76,1.66-5.45s-1.48-4.33-2.59-2.45a6.54,6.54,0,0,0-.93,5.46c.56,1.88.37,2.25.19,4.32s-5,2.45-5.74,2.82-.56,3.77-1.67,5.46-3.15.94-3.89,1.32-1.85-1.13-1.85-2.45-.19-4.14-1.3-5.45a28.25,28.25,0,0,1-3.52-4.33c-2-3-3.33-2.82-2.41-4.14s.74-4.52-.55-4.7.74-3-2-2.26-4.26,1.32-3.71,3.39-1.11,2.82.37,4.89.56,1.69,2,2.63,3.34-.19,2.6,2.63.55,1.89-.75,2.83-2.59-.76-2,1.12,3.7,1.32,3.52,2.45-.37,1.88-1.3,2.26a28,28,0,0,0-3.33,2.07s-4.27,0-1.86,1.31,6.67-.18,6.67-.18,5-1.32,5.93-1.13,2.22-.38,2.78,0,1.29,1.13.18,2.07a6.84,6.84,0,0,1-3.52,1.69c-1.29.19-2.59.19-3.15,1.32s-1.29-.19-3,.94.74,2.07,2.41,4,3.52,5.45,3.33,7.15.74,2.82-1.29,3.2-5-.57-6.12-.57-5.18-1.69-5.55-.94-2.41,2.07-1.86,4.33-.18,5.64,0,8.27,2,3.2,3.71,3.77A31.49,31.49,0,0,0,383,156c1.67.18,4.08.18,5.56-1.51s2.41-4,3.7-7,3.52-8.09,5-8.84,4.07,0,6.11-.38,1.85-2.44,3.52.19,2.59,5.27,5,6.77,4.26,2.07,4.63,3.58.19,2.63-1.67,3.38-3.89-.18-3.33,1.51a5.27,5.27,0,0,0,2.41,2.63s2.4-2.26,2.78-3.38,1.29-.94,2.59-2.64,2.41-3.2.93-4.51-3.52-1.51-5-3.58-5-2.82-4.26-5.64,1.11-4.33,2.41-3.2-.74,3.57,3,5.83,5.93.94,6.3,3.58-.37,4.89.37,6.77,3.71,2.82,3.71,4.51,2.78,0,3-1.31-1.48-2.82-.55-5.27,2-3.2,4.07-2.82,4.26.75,4.45,0-.19-1.32.18-4.52.19-3,2.23-6.39,3.15-4,4.44-3.39,3,1.32,2.23,2.07-2.78,0-1.86,2.26,2.41,3.2,3.52,2.63,2.78-.75,2.23-2.26-1.49-.75-1.3-2.63.92-2.45,1.85-2.82,2.22-2.64,3-.57.38,3.2-.74,3.77-2.59-1.13-2,1.12,1.48,2.07,2.59,2.64a11.76,11.76,0,0,1,3,2.63c1.3,1.32,2.78.19,2.78,2.64s-1.85,3-3.52,3.38-2.78,1.88-4.63.19-2-3.57-4.26-3.2-2.41,1.13-4.07,2.26-2.78,1.13-5.56,1.69-4.08-.56-4.26,1.32.37,2.63.92,3.95-.55,1.13.56,2.82,4.82,3.2,6.11,2.45,2.23-2.26,3.15-1.69,2.22,2.06,3.71,1.12,2.22-.75,2.4.76-1.11,3.38-1.85,5.83-1.29,3.95-4.26,4.7a18.14,18.14,0,0,1-6.11.75,13.53,13.53,0,0,1-5.74-.94c-2-.75-2.23-2.44-4.82-2.44s-3.71-.75-4.45.75,0,2.26-.92,3.57-.74,0-4.63-1.69-5.75-3.38-7.6-4.33-1.48-6.58-1.85-7.52a2.88,2.88,0,0,0-3.34-1.51c-1.66.38-4.07.95-6.11,1.32s-5.56.38-6.48.94-1.11,1.7-3.89,2.07a14.93,14.93,0,0,1-4.45.38c-3.52,0-4.26-.94-5.37.75s-.93,3.2-1.85,4-1.48,0-2.23,1.69,1.39,3.58-1.11,5.55-5.83,4.24-7.22,7.91S362,188.82,362,188.82s1.94-.56,1.11,4.24-1.94,6.49,0,9.31,7.22,10.16,8.89,11.57a37.69,37.69,0,0,0,5.84,3.39l11.67-2.26s6.94-2.54,9.44-.28,3.06.28,5,3.1,8.61,29.07,6.94,31.89-2.78,5.64-1.39,9,1.39,8.46,2.5,11.29,1.95,4.23,4.17,8.74,0,6.21,3.06,7.9,3.89,2.83,8.06,1.7,6.39-3.67,9.44-5.08,5.84-3.39,6.12-5.36-.56-3.67,0-5.36.83-3.39,1.94-4,3.89-7.05,5.84-9.31,3.61-2.54,5.28-5.64,2.78-4.52,1.39-10.44-5-4.8-1.39-10.44a61.8,61.8,0,0,1,8.33-11c3.62-4,9.17-10.44,9.73-11.29s3.05-4.23-.28-4.51-5.56,4-9.17-.28-2.78-5.93-7.5-11.29-6.67-6.77-7.78-11.57-2.5-8.47-1.39-8.19,5,2,7.5,7.91,7,22.29,12.51,18.62,8.89-2.82,11.39-5.36,1.94-1.13,5.83-4.52,6.39-4.51,4.45-6.77-2.22-4.51-5.28-4-3.89,2.82-6.39,1.69-2.22.57-4.73-4.51-8.33-7.06-3.05-6.21,6.39,2.54,8.89,3.95,6.39.57,10,2.26,8.06,3.1,10,2.82,2.22-2,4.16,1.41,3.89,5.08,4.45,6.77,1.39-4.23,2.5-1.12-3.06,4,1.11,10.44,5.28,9.87,6.67,11.28,4.45-3.38,4.45-4.79-1.39-3.67.27-6.21,1.67-3.39,5.56-5.08,3.89,0,6.39-4.23,5.28-5.65,7.23-4.24,3,.85,3.61,4.8-.28,2.26.83,4.8,2.78-3.67,3.89,0,2.64,4.37,2.78,8.18-.69,8,1,9,1.12-.42,2.64,1.84.84,1.83,2,4.51A7,7,0,0,0,562.1,222a1.47,1.47,0,0,0,1.3-.14c0-.85-.65-.85-1.11-1.88s-.1-2.45-.56-3.67a8.07,8.07,0,0,0-1.67-2.82c-.46-.38-1.39-.28-2.13-1.6s-1.2-.94-1.94-2.54-1.48-1.69-1.3-2.82a5.23,5.23,0,0,1,1.3-2.26s0-1.79.74-2.35,1.48-.85,2-.19,1.94,2.16,2.68,2.92,1.95.19,2.32,1.41.18,2.82.46,3.48,2.78-.28,4.26-2.45,2.69-1.88,3-4.23.64-3.67-.65-5.36-1.58-2.35-2.69-3.67-2.22-1.79-2.31-2.35,1.66-2.64,2.5-3.2a36.09,36.09,0,0,1,3.33-1.69,22.47,22.47,0,0,0,3.43.37c1.48,0,6.55-.87,7.18-1.57s2.64-2.82,3.4-3.6,1.81-1.69,2.64-2.54,1.18-1.55,2.15-2.75a7.53,7.53,0,0,0,1.88-3.74c0-1-1-2.63-1-4.8s0-3.29-.65-4.42-2.13-1.79-1.94-3,2.78-3,3.15-3.57.92-2.17,0-2.17-4.17.94-4.91.19-1.21-.66-1.21-1.69a2.08,2.08,0,0,1,.74-1.88c.37-.19,3.2-.38,3.89-1.58s1.46-2.82,2.3-2.33,1,2.54,2.77,2.33,3.41.35,3.41,2,.48,2.4,1.32,2.68.83,2.4.83,2.4-1,2.39-.62,3.38.55,1.91.83,2.12,1.18.7,1.74.07,1.8-2.54,1.8-2.54a9.57,9.57,0,0,0,.14-3.17c-.28-1.13-.48-2.54-.9-2.9a7.43,7.43,0,0,1-1.53-2,2.75,2.75,0,0,1,0-2c.28-.7,2-1.41,2.36-2s.35-1.34,1-2.68,1-2.47,1.94-2.76,2.29.22,2.85.22,1.11.91,2.22-.15,5.91-4.82,7.85-8.86,4.35-10.25,4.35-10.25-.09-6-.27-7.06-1.76-2.16-2.13-2a11.69,11.69,0,0,0-1.3.94c-.65.47-2.22,1.41-2.78.65s-2.69-1.12-2.69-3.38-.64-1.69,3.15-3.86a34.56,34.56,0,0,0,9-6.68c2.41-2.63,4.26-3.19,7.22-2.82s6.67,0,7.6,1.51.74,2.44,2.22,1.5a19,19,0,0,0,3.52-3.76s3-3,4.45-3.39,3.7-1.31,4.26-.94a9.25,9.25,0,0,1,1.48,2.07s.55.38,1.11-.75.74-2.82,1.85-2.07,2.6,4.51,0,6-6.3,4.33-8.33,5.83-5.19.94-5.56,2.64.37,7.14,1.85,10,2.22,6.2,4.08,4.51,2.22-4.33,3-6.4,2-3,3-4.89a37.59,37.59,0,0,0,1.86-5.45s-3.34.56-3.34,0,.56-2.82,4.82-3.76,6.48-1.7,7.78-1.32,4.82.56,6.85-1.69A12.54,12.54,0,0,1,683.44,95c1.11-.19,2.77,1.32,3.33.19s-.74-3.2-.93-3.76-.92-1.88.74-2.26,2.78.38,3.34-.94-.19-4,1.85-3,3.34,1.69,3.89,3-.55,1.69,2.22,2.07,2.23,1.13,3.71,0,.56-1.88,2.78-1.51S706.22,86.39,704.55,86Z"/><path class="cls-3" d="M471.93,247c-.69.14-1,1.69-2.08,3.52s-4.45,3.67-4.45,3.67-3.19.71-3,2.12,1.25,2.68,1.11,4.23-1.81,1.27-1.81,3.53.56,2.82,1.25,5.36,5,3.67,6.12,1.27a22,22,0,0,0,2.5-7.9,75,75,0,0,1,1.94-8.61c.56-2.54,1-2.54.28-4.37A7.5,7.5,0,0,0,471.93,247Z"/><path class="cls-3" d="M625.64,129.66a3.25,3.25,0,0,0,0,2.44,32.31,32.31,0,0,1,1.3,3.58s1.66-.57,1.29-1.88a42.77,42.77,0,0,1-.74-4.33,20.5,20.5,0,0,1,1.11-2.26c.74-1.31,1.3-1.13.93-3.57s-1.11-2.82-1.11-4.14-.37-.19,0-1.32a16.3,16.3,0,0,1,1.11-2.44c-1.11.75-2.78-.38-2.41,3.19s.19,6-.18,7.15S625.64,129.66,625.64,129.66Z"/><path class="cls-3" d="M621.93,144.9c-.18.75,1.49,1.88,1.49,1.88s.74-1.7,1.29-1.88a22.87,22.87,0,0,0,3.71-1.32c.92-.56.92-.19,2.22-.38s1.11-1.69,1.11-2.82a3.58,3.58,0,0,1-2.59-.37c-1.3-.76-.74-2.07-2-1.89s-.55,1.32-1.11,2.64-1.11.75-2.41,1.31S622.12,144.14,621.93,144.9Z"/><path class="cls-3" d="M620.08,155.81l-2.22.94s-.93-.38-2,1.13a5.63,5.63,0,0,1-2,1.88s0-1.32-1.11-1.13a6.23,6.23,0,0,0-2.78,1.13c-.74.56-1.11.37-1.29,1.13a4.38,4.38,0,0,1-1.3,2.07c-.74.75-1.11,3.57-1.11,3.57l3,1.13s1.49-1.69,1.11-2.45,0-2.44.75-1.69-.56,1.32,1.11,1.32a10.89,10.89,0,0,0,3.89-1.13,6.94,6.94,0,0,1,3.15-2.45c1.85-.56,4.26,0,4.81-.56a2.45,2.45,0,0,0,.74-2.63,7,7,0,0,1-.37-4c.37-1.69,0-2.44.74-3.76a2.86,2.86,0,0,0,0-2.63s-1.11,1.32-2,.94-.74-2.45-.93-.38.37,3.39.56,4.89S620.08,155.81,620.08,155.81Z"/><path class="cls-3" d="M591.65,184a6.47,6.47,0,0,0,.83-1.41,4.52,4.52,0,0,0-.37-2,3,3,0,0,0-1.67.57s-.83,1.59-.37,2.25A2,2,0,0,0,591.65,184Z"/><path class="cls-3" d="M574.14,191.27l.37-1.79c-1,.19-1.94-.75-2.87.1s-2.22,1-1.11,2.07a4.27,4.27,0,0,0,2.32,1.13Z"/><path class="cls-3" d="M524.87,209.85a2.34,2.34,0,0,0-1.39-.43,4.62,4.62,0,0,0-.28,3.81c.42.57.56,2.26,2.08,1.56s2.51-2,1.12-3.25A9.15,9.15,0,0,1,524.87,209.85Z"/><path class="cls-3" d="M641.85,232.85s3.06-2.64,1.2-2.45-.55.47-2.41,1.13a5.68,5.68,0,0,1-2.77.56c-.75,0,.46.94.46.94A6.68,6.68,0,0,0,641.85,232.85Z"/><path class="cls-4" d="M622.68,51.58c.37,1.13.18,2.07,1.85,3.2a18.9,18.9,0,0,0,3.89,1.88c.18-.56-1.11-1.69-1.67-2.63S622.31,50.46,622.68,51.58Z"/><path class="cls-4" d="M636.38,50.64c1.86.38,5,1.32,4.82.38a2.17,2.17,0,0,0-2.41-1.88,22.52,22.52,0,0,1-5-1.13C633.79,49.14,634.53,50.27,636.38,50.64Z"/><path class="cls-4" d="M620.45,50.08s3.52-2.26,5-1.88,3,.94,4.08.75a1.55,1.55,0,0,0,1.3-1.13A7,7,0,0,0,626.94,45c-1.12-.19-2,.56-3.52.19s1.11-1.51-2.6-.94-5,1.13-4.07,2.82S620.45,50.08,620.45,50.08Z"/><path class="cls-4" d="M556.17,28.45a1.33,1.33,0,0,0,1.67.94c1.3-.38,2.78.18,4.26.18a24.81,24.81,0,0,0,5.16-.72.89.89,0,0,0-.34,0c-.56,0-2-1.13-3.71-2.63s-1.29-3-4.63-1.88A3.33,3.33,0,0,0,556.17,28.45Z"/><path class="cls-4" d="M542,18.66c-.28,2.12,2.64,4.52,2.64,4.52l4.58,1.41L554,25l2.23-1.27c.55-1.13,1.52-2.82-.56-3.67s-3.61.85-4-1.69-.42-4.09-1.94-4.09-2.92-.28-4,1.55S542.23,16.55,542,18.66Z"/><path class="cls-4" d="M539.46,16.26c.55.57,2.36-1.12,3.61-3a19.55,19.55,0,0,0-4.45.85C536.54,14.85,538.9,15.7,539.46,16.26Z"/><path class="cls-4" d="M475.82,54.08c-3.19,2.11,1,3.38,1.95,4.23a15.41,15.41,0,0,0,4.72,2.54c2.5,1,2.78.56,2.09-1.83s-2.09-2.83-2.36-6.35,3.33-3.53,3.33-3.53a64.47,64.47,0,0,0,3.75-5.64c1.53-2.69,1.67-.57,4-2.83a20.46,20.46,0,0,1,6.25-4c1.81-.84,6.05-1.36,5.56-2.68-.42-1.13-3.34-.28-5.84.71s-3.05,1-5.55,1.83a58.18,58.18,0,0,0-6.67,2.4c-3.61,1.55-3.75,3.25-6,4.52s-1,3.1-1.52,4.37S479,52,475.82,54.08Z"/><path class="cls-3" d="M368.82,64.34c.55-2.26-1.12-4,0-9.59s1.11-6.78,3.33-9-1.95-7.62-.28-12.7,3.61-3.67,2.5-6.21-5.28-2.26-2.22-5.65A74.53,74.53,0,0,1,381.32,13a18.19,18.19,0,0,1,5.28-2.82c-3.34-1.69-4.45-1.69-7.78-1.13s-10.56,1.13-10.56,1.13l1.67-5.08s-8.34-1.69-12.23-2.82S342.7,0,342.7,0s-1.12,3.39-4.45,4-10-2.26-11.11.57,5.55,5.07,2.77,6.77S328.25,7.9,317.69,7.9s-20.56,6.77-19.45,9.6,6.67,2.25,1.66,5.08-4.44,1.69-8.33,3.38-8.89,4.52-8.89,4.52l9.44,9s10-3.95,15,1.69,7.78,7.9,7.78,12.42,6.11,6.2,6.11,9.59-4.44,2.26-5.55,6.77,2.22,11.86,6.66,15.81-.55,2.25,6.12,7.33,6.67,10.73,10,2.83S337.14,83,341,80.71s10.56-2.26,11.11-5.08,2.23-6.21,5-6.78S368.26,66.6,368.82,64.34Z"/><path class="cls-3" d="M382.05,77.36s3.47-2.4-.55-2.82-3.89-1.27-6.26-.29-3.47,1.42-4.3,2.12-1.67,1.55-1.67,1.55l-1.53.71-.55-1.84c-.56-.42-1.39-2.25-2.37-1.83s-4.16-3.1-1.66,1.27A31.6,31.6,0,0,0,368,82.86s4.31.85,5.7.14,4.72-2.11,4.72-2.11Z"/><path class="cls-4" d="M257,18.47c2.22,1.89,4.26.76,8.33.38s3.34-1.13,7.78-2.63-.74,1.88-3,3.2-5,.18-8.89,2.06,2,1.51,3.15,2.45a1.65,1.65,0,0,1-.75,2.82c-1.11.19-3.7,1.32-2.77,3.39s3,1.5,2.4,1.69-.92-.37-4.26-.19-.92,1.7.56,2.83-1.11,1.31-1.11,1.31-1.67,2.45-1.3,3,2.78.57,5.93.38,2.22-.38,4.44-1.32,1.49.75,1.49.75l4.63-1.12.18-1.7s.37-4.32.93-4.89A32.32,32.32,0,0,1,279,28.63a6.55,6.55,0,0,1,.56-3.76,2.76,2.76,0,0,1,3-1.69l7-3.58s3.33-3.76,4.07-5.45-2.77-2.07-2.22-2.26,3.34.38,5.56-.19,2.41-2.07,3-2.63l-3.15-1.32a92.45,92.45,0,0,0-12.41-1.69,29.74,29.74,0,0,0-9.26,1.13s-5.19,1.31-5.56,2.07,3.34,4,3.34,4-4.45-1.7-6.12-2.64-5.55.94-12,4.14S254.74,16.59,257,18.47Z"/><path class="cls-3" d="M343,233.13c-2.78-2.12-4.72-.71-6.67-2.26a26.73,26.73,0,0,0-7.5-3.81c-3.33-1.27-4.31-.85-6.25-2.54a20.67,20.67,0,0,1-4-4.51,24.18,24.18,0,0,0-3.61-4.38c-2.23-2.25-2.36-1-6.67-2.11s-2.22-1.56-4.59-3.81-1.52-1.41-4.58-3-1.81-.56-5.56-1.27a76.12,76.12,0,0,0-7.64-1c-3.61-.43-2.92.56-5.7,1.27s-1.94,2.82-3,3-1.25-.57-2.64-.71-2.36.29-5,0-1.67-.7-2.5-1.27-1.26-2.82-1.26-3.52.7-3.25.56-5.22-1.39-1.13-2.92-1-4.58-.43-5.28-1.13,1.07-2.26,1.44-3.39a4.1,4.1,0,0,0-1.11-4.89c-2-1.69-2.23,1.69-2.78,2.64a7.4,7.4,0,0,1-5.93,2.63c-2.78-.19-4.26-2.26-5.56-3.2a6.08,6.08,0,0,1-2.59-3.2,9.42,9.42,0,0,1,0-5.08c.56-1.31,2.59-3.19.93-4.51s-.74-1.88-.37-2.82,4.63-2.26,6.48-2.64,2,.94,3.33,1.51a4.65,4.65,0,0,0,4.45,0c1.85-.94,0,0-.74-1.13s-.74-1.51.74-1.69,3.52,1.12,3.52,1.12a36.24,36.24,0,0,0,4.45-1.69c.92-.56,2.77,4,3,4.89s.74,5.08,1.11,5.65,2.59,0,2.59-1.32-2-10.54-1.48-11.85,2.6-2.26,5.56-4.71,1.67-2.63,1.67-2.63.18-4.51.37-7.34,1.48-.37,1.48-.37a4,4,0,0,0,1.85-3c.19-2.07.93-1.51,3-2.45s1.66-.56,3-1.69a3.2,3.2,0,0,0,1.11-2.64,5,5,0,0,1,1.11-3.19c1.3-1.89,2.23-.76,4.26-2.07s.93-1.32,2.78-3,1.3,1.88,1.3,1.88-3.15,3-1.67,3.57.93-.56,2.59-1.31a7.18,7.18,0,0,0,3.34-2.26c1.11-1.32.74-.57,2.22-1.32s2-.56.93-3.39-.93,1.7-.93,1.7-2.22,1.31-2.22,0-2.22.56-3-.75-1.49-2.45-1.49-3.58.74-.19,1.67-2.44-.74-1.32-2.41-1.51-1.66,1.13-4.26,2.63a25.53,25.53,0,0,0-5.37,4.9,32.36,32.36,0,0,1,3.15-5.08c1.67-2.07,2.41-3.39,5-4.71s7.22-.56,7.22-.56,6.63-.75,8-1.6,1.94-.71,2.22-1.55a5.63,5.63,0,0,0-1-4.66c-1.25-1.41-5.28-.28-5-1.27s3.19-.56,2.77-2.26-2.64-1-4.86-1.69-1.53-2.68-1.67-4.66-1.25-4.23-2.5-7.47-1.11-1.7-3.05-.57-1.25,2.68-2.09,4-2.64.71-3.89.28-1.66-.7-1.66-3.38-1-2.12-3.06-4-2.36-1.13-4-1.7-4.58-1.83-6.11-1.12-.7,3.1-1.39,7.76,1.66,4.09,2.22,5.64-.83,3.39-2.78,4.23-.14,4.52.56,6.92.28,4.65-1.25,4.65-.84-.7-2.23-1.83-2.08-1.13-1.94-2.4a8.59,8.59,0,0,0-.83-3.81c-.42-1-3.76-.71-3.76-.71a21.85,21.85,0,0,1-4.3-3.52c-1.95-2.12-4.87-1.41-5.56-1.55s-3.24-.66-4.26-2.92-1.3-.28-3.43-2.35.56-5.36.56-5.36,2.22-4.14,3.52-5.93,5.83-1.69,6.85-2.26.84-.56,1.3-2.73-1.39-.94-2.87-1.31-1.95-1-1.76-1.88,1.66-.1,3.33-.29,2.13.47,3.43-.28-.65-.37-1.11-2,1.39-.1,2.41-.38,1.57.85,4.63.66,1.57-.75,1.48-2.26-.46-1.88-.09-4.14.74-2.35-.56-4.14-2.59-.65-5.09-.47-.28,1.79-.65,3,0,2.36-.09,4-2,2.63-4.27.28-.09-3.76.19-5.08,1.57-1.41,2.87-2.82,1.48-.47,2.59-1.13,1.67-.09,3.62-.38a12.5,12.5,0,0,0,3.79-1c1.76-.66,1.86-.38,4.54-.09S277,65.41,278,66.82a17,17,0,0,0,4.17,3.58c1.39.94,2.87,1.69,3.89,3.48s.09,2.63-1.11,5.08-2.5,2.35-4.63,2.54-4.63.19-5.28.94.74,2.07,2,2.35A5.82,5.82,0,0,0,281,84a2.76,2.76,0,0,1,3.15.09c1.3.66,1.39,2.73,2.6,4.42a5.31,5.31,0,0,0,3.89,2.35c1.11.1,2.59-.94,2.41-1.78s-1.39-2.17-.56-2.54,1.39,2,2.59,1.88,1.86-1.13,1.49-3.48-1.49-2.07-2.6-3.29-2.78-1.51-3-3,1.11-1.7,2.5-2.07a2,2,0,0,1,2.13.56s1.48,3.67,2.87,4,1.48-.56,2.41-2.91.92-2.83-.28-4.33-3.61-.94-5.19-2.45-1.66-1.31-3-1.5-1-1-.65-1.7,2.6-.47,2.6-1.41S292.16,63.63,291,62s-4.91-2.73-7.41-2.83-1.85-1-2.69-3S279.1,55.35,278,55s-3.7.85-5.83,1.41-1.76-.19-3.43-2.44a30.32,30.32,0,0,0-3.24-4c-1.3-1.31-5.47-1.22-7.13.1s-.65,3.48-1.58,5a13.16,13.16,0,0,0-2.13,5.74c-.37,2.73,2.41,3.48,3.52,3.67s1.39,1.69.56,3a27.68,27.68,0,0,1-2.41,3,4.21,4.21,0,0,1-2.69-1.51c-.74-1.22-1.85-.66-1.39-2.25s0-1.42-1.11-4.71-1.39-1.31-2.41-2.54-.55-2.44,0-4.14,2.5-.09,3.89-1.6.56-2.07.37-3.38-1.39-.57-3.15-.47-1.94,1.41-3.33,2.54S246,54.5,246.13,56a20.22,20.22,0,0,1-.28,5.26c-.37,1.51-1.34,4.24-1.34,4.24s.83,2.11,1.8,2.25,2.51.29,3.06.85-.14,2.12-.69,3.81-1.39.85-1.67,1.69-.56,2.4-1.53,2.83-.69-.57-1-2.69,1.39-1.27,2.22-2.54S245.2,69,244,67.91s-2.36.14-3.19,2.39.83,1.84.27,2.4-.13,2-1.25,2.82-2.22.29-5.83-.56-1.39-.85-5.7-2.68S226,73,225.75,75s-.28,3.39-2.08,3.25-1.25-.57-3.2-1.42-3.89.29-4.86-1.12a3.7,3.7,0,0,0-3.06-1.27,39.34,39.34,0,0,0-4.3-3.25c-2.23-1.41-6.95.28-10-.28a53.59,53.59,0,0,1-5.69-1.41,5.4,5.4,0,0,0-4,1.27C187,72.28,182,72.42,182,72.42a29.17,29.17,0,0,1-3.89,2.82c-1.39.71-1-.42-2.64-1.55s-4.45-.14-7.78-.71-4.73,0-10,0-6.26-1.55-9.73-2.39-4.31,0-6,1.12-5.7,4.8-9.45,6.07-2.22,1.41-1.95,2.82a6.9,6.9,0,0,0,2.23,3.81c1.39,1.41,2.78,0,4.16,0s.56,2.12.56,2.12a13.41,13.41,0,0,1-3.75.85c-1.53,0-2.5-1.13-3.2-1.27s-1.94,1.41-2.22,3.24,1.39,2.12,2.64,2.26,4.59-1.55,6.11-2,2.09,1.7,2.09,1.7a14.93,14.93,0,0,1-3.89,2.25,9.66,9.66,0,0,0-5.28,4c-1.53,2.25-.7,5.07,2.08,5.22s3.06.42,4.31,2.54,2.5,0,5.7.28,2.22.28,1.25,3.38-7,2.83-8.76,3.53-5.14,3.53-5,4.66,3.75-.85,6.39-2,5.56-1.69,8.89-4.23,2.37-3.39,3.48-6.35a11.35,11.35,0,0,1,4.44-5.5c1.67-1.27,2.5-1,2.92-.14s-1.11,2.25-3.06,3.66-.14,1.7,2.5.57,2.23-2.12,5.15-3.25,1.94.43,3.33.71,3.47.56,3.47.56,2.78.57,5.84,1.27,3.89,1.13,6.53,4.94,5.56,4.66,5.56,4.66a5.15,5.15,0,0,1,3.19,4.09c.56,3.25,2.64,4.23,4.31,6.63s3.61,1.84,4.72,1.84,2.64,2,2.64,2l.28,4.94.14,7.48s-1.81,8.18-1.25,11,2.64,6.21,3.89,8.75,2.5,2.31,3.79,2.68,2.78,3.2,3.9,5.46,3.33,6.21,4.81,9.78,5.37,6.21,5.37,6.21a19,19,0,0,0-.37-4c-.37-1.13-4.07-6.78-5.37-8.66a3.08,3.08,0,0,1,0-3.57,1.7,1.7,0,0,1,1.11.56c.56.57,2.6,5.65,3.15,6.21s2.59,3.58,5,6,2.23,3,4.08,5.27,0,3,2.78,5.64,5.55,4.33,8,4.71,3.52.37,5.56.75,3,1.69,3.89,1.88,5.56,1.13,8,1.88,3.7,3,5.18,5.08,2.41,4.52,6.3,6.4,3.15,0,3.89-1.13,3.71-1.13,4.45,1.5-2.6,9.79-2.6,9.79-4.44,7.15-4.07,11.28,4.44,4.9,6.67,12.42,8.52,7.15,10.37,12.42,0,20.69,0,20.69L282,300.67s-2.22,15.05-1.85,20.69,4.82,6.4,6.67,8.28,9.26,2.63,11.49,2.26c0,0,1,.09.18-.38a13.85,13.85,0,0,0-4.91-2.45c-2.59-.56-1.85-1.41-2.59-2.63s-1.21-2.92-.84-6.21,1.21-1.88,1.95-3,2.69-1.6,3.06-4-.37-.85-.74-3.95,1.48-1.13,1.85-2.17-.56-4.51.83-5.83,2.5.19,3.71-.94-.1-1-.28-2,.09-1,.55-2.06,1.3-1.51,2.41-2.36,1.48.1,3.52-.09,1.71-3.81,3.38-5.08,1.53-.56,3.2-1.69a21.65,21.65,0,0,0,4.72-3.95c2.64-2.68,2.5-2.68,3.34-4.66a26.3,26.3,0,0,0,2.08-6.21c.69-3.24,2.08-2.4,3.19-3.38s3.76-3.81,5.84-6.21,2.78-.57,4.45-.71,2.5-1.41,2.64-4.23.41-4.52.41-7.34,1.11-2.68,2.78-4.94,3.75-2.25,3.75-7.33S345.79,235.24,343,233.13Z"/><path class="cls-3" d="M310.78,120.72c-.46-.28-1.48,1.32-1.95,2.26a35.52,35.52,0,0,0-2.22,4.33c-.65,1.78,2.5,1.78,3.34,2.07a15.73,15.73,0,0,0,4.07.47c1.48,0,1.39,1.93,2.78,1.69.56-.09.18-1.41.09-2.16a9.68,9.68,0,0,0-.92-3.11c-.56-1-1.21-.56-2.41-1.41s-.93-1.69-1.39-2.82S311.24,121,310.78,120.72Z"/><path class="cls-3" d="M291,199.69c-1.11,0-1.21-1.18-1.62-.28s-.7,1.17.09,1.45,1,.62,1.53.24,1,0,1-.94S291,199.69,291,199.69Z"/><path class="cls-3" d="M279.38,198.14c.93.7,1.2.18,2.36,0a3.37,3.37,0,0,1,2-.09,9.48,9.48,0,0,0,3-.15,1,1,0,0,0,.28-.51c0-.24-2-.19-2-.19a10.66,10.66,0,0,1-.79-2.4c-.32-1.5-1.06-.61-3.42-.56s-.88.75-1.16,1.88-.88.42-1.62.8S278.45,197.43,279.38,198.14Z"/><path class="cls-3" d="M276.42,192.49c1.15.71,1.43.14,1.85.1a5.24,5.24,0,0,0-.14-1.7c-.23-.84-.65-.89-1.11-1.45s-1.21-.57-2.09-1.46-1.57-2.73-2.13-3.44-2-.56-2.68-.61-2.46,0-3,0-.74.47.09,1.08,1,0,2.13.05,1,.33,2.18,1.22a4.89,4.89,0,0,1,1.62,2.87C273.31,189.86,275.26,191.79,276.42,192.49Z"/><path class="cls-3" d="M270.77,195.93c1.25,0,1.76.18,1.85-.29s-.46-1-.46-1c-.47-.29-.75-.76-1.25-.47s-1.07.51-.88.89S269.52,195.88,270.77,195.93Z"/><path class="cls-4" d="M271.81,90.13c-.28.56-.49,2.18-.07,2.26s1.32-.15,1.46-.78.48-1.27-.07-1.41A4.77,4.77,0,0,0,271.81,90.13Z"/><path class="cls-4" d="M264.79,89.35c-.55.21.07,1.2.77,2.26s1.11-.49,1.52-.92,1.05-.7,1.32-1.34a9.46,9.46,0,0,1-1.59-.35A3.46,3.46,0,0,0,264.79,89.35Z"/><path class="cls-4" d="M270.63,86.18c.62-.85-.84-.85-1.81-1.34a15.26,15.26,0,0,1-3.26-3c-1.32-1.41-1.25-1-2.37-1.13s-.69.36-1.11.78A11,11,0,0,0,261,83.57a16.58,16.58,0,0,0,.49,3.81c.48,1.76,1,1.76,2.08,1.83s1.11-.85,1.95-1.34A12.92,12.92,0,0,1,267,86.74c.76-.49,1,.28,1.52.42A2.27,2.27,0,0,0,270.63,86.18Z"/><path class="cls-4" d="M279.52,76.09a2,2,0,0,0,1-1.84c-.14-.77-.62-1.9-1.25-2-1.22-.28-1.53-.14-1.8.63s-.77,1.63-.14,2.33S279,76.51,279.52,76.09Z"/><path class="cls-4" d="M269.93,53.44c.63.36,1.81,1,2.64.64a12.21,12.21,0,0,0,2.36-.92c.35-.35,1.53-1.06,1.12-1.41a2.82,2.82,0,0,0-2.09-.56,4.79,4.79,0,0,1-1.87-.22s-2.3-.56-2.44-.14C269.45,51.47,269.31,53.09,269.93,53.44Z"/><path class="cls-4" d="M242,55.28c-1.39-.21-.91-.71-.56-1.2s1.39-1,1.32-1.91-1.46-.35-3.05-.42-2.64.07-2.92,1.76,1,.07,1.53.78.27,1.9-.91,1.2-1.8.07-2.36,1.34,1,.78,1.81.7,2.43,2,4,2.54,1.46-.14,2.15-1c0,0,.49,0,.63-.71a8.3,8.3,0,0,0,.27-2.47C243.81,54.78,243.4,55.49,242,55.28Z"/><path class="cls-4" d="M236.77,67.48c0-.66-1.11-1.32-2.87-2.73A6.44,6.44,0,0,1,231,59.86c-.28-2.35-.55-2.82-1.67-3.29a7.92,7.92,0,0,1-2.13-1.5c-.83,0-2.13,0-2,.75s1,2.44.46,3a5.26,5.26,0,0,1-1.58.94,4.68,4.68,0,0,0-2.59-1.51,21.22,21.22,0,0,1-4.54-1.5c-1.2-.47-1.39-1.22-2.68-.85s-2.69.47-4.08,1.79S207,60,207,61.27a3,3,0,0,0,1.11,2.17s2.69-.19,2.32.56-2.13,1.22-2.13,1.79.65.85,2.87.85,4.17-1,5.74-.48,3.71.19,2.23,1.13-4.17.19-6.58.38-4.72.85-3.89,2.16,4.54,2.17,5.56,2.07,1.29.1,2.41.85,4.44,1,4.44,1,2.22-1.88,3.06-2.63.65-4.33,4-2.26,4.08,3.67,5.84,2.82.55-1.69.64-2.53S236.77,68.14,236.77,67.48Z"/><path class="cls-4" d="M197.22,63.25c.56,1.32,2.14,1,5.38,1.32s2-.47,3.15-2.26.83-2.07,1.39-3.76,2.77-2.54,4.44-3.67a5.34,5.34,0,0,0,.46-2c-.09-.66-.83-.75-3.24,0s-1.94-.75-5-1.13-3.33.1-5.46.94-.37,1.7,0,2.45a3.8,3.8,0,0,1-.37,3.76C197,60.71,196.67,61.93,197.22,63.25Z"/><path class="cls-4" d="M228.16,52.34c-.09.66.83,2.73,1.39,2.63s1.85-.66,2-1.41-1.39-1.32-1.39-1.32C229,51.87,228.25,51.68,228.16,52.34Z"/><path class="cls-4" d="M251.13,44.62c.19.85,0,2.26,2.5,2.36s5.19.56,7.41.18,6.21.1,6.86-.37a25.62,25.62,0,0,0,2.31-2.45,13.41,13.41,0,0,0,2.59-.84c.28-.29.1-1.42.1-1.42a3.9,3.9,0,0,0-3.62-1.41,23.42,23.42,0,0,0-5.46,1c-.83.28-2.41,1.5-4.54,1.6s-3.89.56-4.54-.85.56-1.22.74-2.16.56-1.6-1.94-1.88-3.06-.47-4.26-.19-2.22-.75-3.24-.57-1.86-.37-1.95.85,2.87,2.35,3.71,2.16,3.42-2.25,3.52.1S251,43.78,251.13,44.62Z"/><path class="cls-4" d="M245.76,43.78c-.46.75-1.67,1-.56,1.88s2,2.07,2.87,1,1.21-1.31,1.12-2.07a2.59,2.59,0,0,0-.65-1.31C247.61,43.12,246.22,43,245.76,43.78Z"/><path class="cls-4" d="M237.7,41.05l-3.15.75s-.09,1.41.37,1.7,1.39,0,2.69.09.37,1.32.92,2.16,2.56.55,3.62-.09a1.24,1.24,0,0,0,.27-1.6c-.27-.66.1-1.32.37-2a3.44,3.44,0,0,0,.1-2.16c-.19-.75-1.39-.56-2.78-.47A3.78,3.78,0,0,0,237.7,41.05Z"/><path class="cls-4" d="M210.19,47.73c0,2,1.85.75,3.06.75s1.48-.66,2.5-1.5,1.39-.29,1.94-.19,1.49,1.41.93,1.79-3.89,1.69-3.61,2.53,1.76.29,3.15-.28a22.28,22.28,0,0,0,4.54-2.54c1.57-1.13,1,0,3.05-.28s2.5-.66,3-1.6a2.79,2.79,0,0,0,.64-1.88c-.09-1-.46-1.13-1.29-1.32s-.74.76-2.23.57.65-1.23.38-2.45-2.32-.66-3.71.28.46,1.23,1.2,1.89.47,1.31-.27,2.06-.84.57-2.41.57-1.95-1.32-2.41-2.35-1.2-.66-3-.66-1.95.75-3.89,1.32S210.19,45.75,210.19,47.73Z"/><path class="cls-4" d="M219,37l.65.28s.46,0,1.67-.85-.19-1.5-1.39-1.69-2.13.56-3.15,1.22S217.51,37.48,219,37Z"/><path class="cls-4" d="M201.57,45.75a3.74,3.74,0,0,0,.67.1,2.78,2.78,0,0,0,.91,0c.18-.06.36-.19.55-.27a3,3,0,0,0,.39-.22c.23-.12.51-.12.73-.26a1.93,1.93,0,0,0,.5-.6,13.76,13.76,0,0,0,.85-1.55c.11-.24.2-.44.47-.5a2.86,2.86,0,0,1,.77,0,2.58,2.58,0,0,0,1.32-.18,1.22,1.22,0,0,0,.72-.83c.08-.29.13-.58.19-.87l.09-.09a1.1,1.1,0,0,1,.27-.26c.19.1.27.27.5.24a.72.72,0,0,0,.38-.21A5.68,5.68,0,0,0,212.06,39a.46.46,0,0,0,.07-.38c0-.21,0-.44-.09-.64-.14-.59-.63-.35-1-.24a1.91,1.91,0,0,1-.51.13,2.36,2.36,0,0,0-.46,0,3.49,3.49,0,0,0-1,.48,10,10,0,0,0-1.24.68,5.11,5.11,0,0,0-.75.72c-.32.34-.91.28-1.34.42a10.05,10.05,0,0,0-3.32,2.28,3.18,3.18,0,0,0-1.22,2,2.19,2.19,0,0,0,0,1.11C201.31,45.73,201.41,45.72,201.57,45.75Z"/><path class="cls-4" d="M230.89,31.08c.35.09.77,0,1.09.17.65.34.36.25.64,1a3.3,3.3,0,0,0,1.06,1.6,8.68,8.68,0,0,0,3.85,1c2.3.22,3.28-1.66,1.83-3.55-.94-1.22-2.76-1.43-4-2.14a12.38,12.38,0,0,0-4.43-1.54.44.44,0,0,0-.42.17.5.5,0,0,0-.13,0C227.68,28,229.18,30.6,230.89,31.08Z"/><path class="cls-4" d="M240.05,25.33a.54.54,0,0,0,0-.95c-.48-.26-.94-.76-1.55-.62a1,1,0,0,0-.66,1.34C238.14,26,239.93,26.63,240.05,25.33Z"/><path class="cls-4" d="M246.85,25.58a20.41,20.41,0,0,0,2.22-.08c2.35,0,.93,1.25,0,1.27a.59.59,0,0,0-.53.42c-.69,2.35,3.5,3.91,5.2,3.66,1.87-.28,2.24-1.13,3.7-2.21,1.11-.82,2.67-.8,2.95-2.36.21-1.13-.32-1.65-1-2.4a16.93,16.93,0,0,1-1.49-1.66c-.19-.3-.06-.42-.31-.71a4,4,0,0,0-1.21-1c-1.6-.88-3.26-1.76-4.9-2.53a6.32,6.32,0,0,0-4.18-.85.57.57,0,0,0-.5.43c-.88.94-1.83,2-1.66,3.35s.59,0,.34.95c0,.09-.4.08-.43.17-.13.51-.49.69-.52,1.32C244.44,24.82,245.52,25.41,246.85,25.58Z"/><path class="cls-4" d="M244.9,33.09c.36.09.81,0,1.13.17a.51.51,0,0,0,.66-.1.43.43,0,0,0,.3-.38c.11-.81.39-1.72-.29-2.36a2,2,0,0,0-1.32-.46c-.41,0-.76-.23-1.13.07a2.18,2.18,0,0,0-.23,2.42A1.26,1.26,0,0,0,244.9,33.09Z"/><path class="cls-4" d="M253.75,34.87a.57.57,0,0,0,.09-.68,1.45,1.45,0,0,0-1.13-.78.41.41,0,0,0-.44-.06H252a.49.49,0,0,0-.51.38l-.75.21a1.74,1.74,0,0,1-.75,0,1.6,1.6,0,0,0-.49,0,.57.57,0,0,0-.55.56c-.11,1,1.25,1.23,1.95,1.31A3.27,3.27,0,0,0,253.75,34.87Z"/><path class="cls-4" d="M230.79,38c.19.59,1.15.56,1.08-.12A4.5,4.5,0,0,0,230.48,35a.54.54,0,0,0-.56,0,1.25,1.25,0,0,0-.77,1.39c.18.66.9,1,1.35,1.44A.52.52,0,0,0,230.79,38Z"/><path class="cls-4" d="M218.76,33.21A11.5,11.5,0,0,0,220,33a1.63,1.63,0,0,0,1,.22l.56-.06a1.79,1.79,0,0,0,1.42.11.57.57,0,0,0,.13-1l-.17-.07a.59.59,0,0,0-.65-.8,6.17,6.17,0,0,0-.65.19,1,1,0,0,0-.39-.2c-.95-.18-1.75.52-2.62.73A.57.57,0,0,0,218.76,33.21Z"/><path class="cls-4" d="M494.3,14.92a1.35,1.35,0,0,0,1.58-.15,2.4,2.4,0,0,0,.38-.1,7.89,7.89,0,0,0,1.35-.44.83.83,0,0,0,.63-.05,1.46,1.46,0,0,0,.61-.79l0,0a.54.54,0,0,0,.22-.23.48.48,0,0,0,.47-.53v-.25a.56.56,0,0,0-.84-.48,1.75,1.75,0,0,0-.67.68l-.65.42c-.71-.2-1.13.2-1.65.57a1,1,0,0,1-.17,0,5.64,5.64,0,0,0-.62-.21A.9.9,0,0,0,494.3,14.92Z"/><path class="cls-4" d="M489.09,14a1.08,1.08,0,0,0,.68,1.35,1.79,1.79,0,0,0,.89,0,3.54,3.54,0,0,0,.49-.18l.27-.11a.51.51,0,0,0,.53,0,.64.64,0,0,0,.21-1c.37-.38.08-1.17-.51-1a1.47,1.47,0,0,0-.47.27s0-.07-.08-.12a1.35,1.35,0,0,0-.88-.45C489.54,12.83,489.21,13.44,489.09,14Z"/><path class="cls-4" d="M485.64,11.6c.36-.13.68-.26,1-.37s.51-.35.8-.63a.59.59,0,0,0,.13-.19,2.91,2.91,0,0,1,1.55.05c.68.25,1-.84.3-1.09a3.92,3.92,0,0,0-2.2,0c-.23.05-1,.37-1.46.45a.57.57,0,0,0-1-.1,4.17,4.17,0,0,0-.28.77.51.51,0,0,0-.19.42C484.32,11.66,485,11.83,485.64,11.6Z"/><path class="cls-4" d="M482.91,14.36l.7,0a1.12,1.12,0,0,0,.4-.07l.1-.05a.57.57,0,0,0,.81-.75c-.05-.08-.09-.17-.13-.25a.55.55,0,0,0-.48-.28l-.08,0a1,1,0,0,0-.28-.14,3.69,3.69,0,0,0-.46-.08,5.26,5.26,0,0,0-.89,0c-.59.05-1.29.38-1,1.1A1.16,1.16,0,0,0,482.91,14.36Zm-.32-1.12h0S482.57,13.19,482.59,13.24Z"/><path class="cls-4" d="M485.21,15.92a1.54,1.54,0,0,0-.64-.07c-.19,0-.38.27-.55.27-.71,0-.72,1.15,0,1.13a1.81,1.81,0,0,0,.65-.19c.24-.08.4,0,.67,0,.53,0,.86-.47,1.33-.56.7-.14.4-1.23-.3-1.09C486,15.52,485.62,16,485.21,15.92Z"/><path class="cls-4" d="M464.87,14.61l.15,0h0a24.16,24.16,0,0,0,2.83.15,5.72,5.72,0,0,1,1.61.07c.52.22.69.61-.16.76-.6.11-.45.91,0,1.09a3.48,3.48,0,0,0,1.28.22.53.53,0,0,0,.48-.28,3.87,3.87,0,0,0,.27-.54,1,1,0,0,0,.41-.74,1.8,1.8,0,0,1,.88-.4c.55-.12,1-.12,1.41-.18l.89.28c.05.12-.19.42-.11.54.54.83.38.93,1.53,1a.56.56,0,0,0,.48-.28l.1-.21c.4.64.69.77,1.94.68.71,0,.72-1.18,0-1.13s-1.1-.32-1.46-.92a.57.57,0,0,0-.88-.12c-.83.81-.06,0-.57-.92a2,2,0,0,0-2.32-.9,19.45,19.45,0,0,0-3.52.18.58.58,0,0,0-.51.46c-.62-.21-1-.66-1.77-.6-1,.08-1.7.73-2.83.62C464.4,13.45,464.25,14.5,464.87,14.61Z"/></g><path class="cls-3" d="M529.52,277.69c-17.53-.45-35-1.52-52.52-2.71-2.33-.15-56.24-7.19-65.5-8.6l-1.18-.2c-15.19-3-21.48-3.95-36.44-8-2.52-.68-66.36-22.25-69.12-23.65-7.58-3.84-15.17-7.65-22.36-12.22-15.24-9.7-29.26-20.78-37.91-37.32-7.5-14.35-7.89-29-.76-43.67,7.34-15.14,19.21-26,32.5-35.5,14-10,27.7-16.45,43.27-23.12-1.93-2.25-2.19-6.18-4.14-8.42C306.8,77.38,298,81,289.6,84.81c-22,10-42.91,21.82-59.53,40.07-9.7,10.65-16.68,22.76-16.9,37.73-.24,15.89,7.16,28.54,17.54,39.64C243.87,216.32,260,226,277.05,234.34c8.37,4.1,77.84,26.44,84.31,27.89,16.4,3.67,39.89,9.46,56.53,11.7,3.19.43,54.74,3.36,58.22,3.57,17.79,1.08,35.6,1.47,53.42,1C529.52,278.26,529.51,278,529.52,277.69Z"/><path class="cls-3" d="M451.58,327.42c11.67-7.34,23.86-13.9,34.89-22.21,15.15-11.42,29-25.38,48.11-28.45,8.48-1.36,17.87-1.18,26,1.36,9.18,2.85,10.35,14.52,2.73,20.81-28.74,23.74-57.1,48.1-86.83,70.33-20.81,15.55-44.57,23.72-70.6,16.89A77.1,77.1,0,0,1,388.32,379c-43.15-23.81-84.7-22.25-124.64,8.33-1.39,1.07-3.07,1.72-6.24,3.45-.26-5.51-.62-9.64-.63-13.76,0-26.64.37-53.28-.17-79.9-.18-9,2.67-13.94,10.4-16.9,13.94-5.32,27.45-12,41.57-16.67,27.74-9.12,55.14-7.35,80.78,7.88,18,10.69,36.79,13.66,56.86,11.55a143.59,143.59,0,0,1,24.43-.76c11.5.78,15.13,7.91,7.71,17.31-8,10.08-18.31,18-27.6,26.85Zm-63.81-3.1-.14,1.6a.8.8,0,0,0,.79.87h50.37v-.39l-50.11-2.9A.88.88,0,0,0,387.77,324.32Z"/><path class="cls-3" d="M250.47,338.91c0,17.85-.35,35.72.14,53.55.27,10.09-4.63,11.73-12.42,12-8.26.24-12.4-2.53-12.34-12.05.23-36.11.35-72.21,0-108.31-.1-10.59,4.72-12.11,13.09-12.27,8.77-.18,11.94,3.12,11.74,12.38-.38,18.24-.11,36.5-.11,54.75Z"/><path class="cls-5" d="M387.84,323.45l51,2.95v.39H387.56C387.65,325.68,387.75,324.56,387.84,323.45Z"/><polygon class="cls-3" points="315.45 74.05 315.36 74.25 315.64 74.6 315.87 74.25 315.45 74.05"/><path class="cls-3" d="M308,591.51c-18.57,25.87-50.72,15.72-58.54-15.19-1-4.13-2.11-8.47-2.12-12.74-.16-41.72-.1-83.45-.1-126.13h17.15c0,2.61,0,32.73.12,45.25h37.3v9.24H264.59c.3,35.8,1,68.5,2.46,88.21,1.47,20.13,17.06,25.38,32.18,14C301.7,592.34,305,592.35,308,591.51Z"/><path class="cls-3" d="M472.77,609.38q-37.49,0-37.68-38.54V482.18h19.85v88.66q0,14.49,5.89,22.54t17.59,8.27a21,21,0,0,0,7.76-1.72q5.94-2.58,21.56-13.63V482h19.85V605H507.74v-9.45Q491.92,606.69,485.27,608l-2.32.65A51.07,51.07,0,0,1,472.77,609.38Z"/><path class="cls-3" d="M592.64,605H572.89V486.73h19.75v9.12a47.47,47.47,0,0,1,16-9.82,52.35,52.35,0,0,1,19.15-3.92l-.1,22.11q-12.3-7.73-18.85-7.73a6.92,6.92,0,0,0-4.94,1.72,52.57,52.57,0,0,0-11.28,10.63Z"/><path class="cls-3" d="M710.06,609.32a59.41,59.41,0,0,1-10.17-.64l-2.32-.54q-37.79-7.62-37.79-62.58,0-30.91,12.4-47,9.77-12.66,26.2-15.56l1.51-.33a52.26,52.26,0,0,1,10.17-.64,54.85,54.85,0,0,1,10.38.64l2.22.43q16,3.23,25.4,15.46,12.39,16.09,12.39,47,0,55-37.79,62.58A56.27,56.27,0,0,1,710.06,609.32Zm.11-8.58q10.37,0,19.54-12.35Q740.6,574,740.6,545.56t-10.89-42.72q-9.16-12.22-19.54-12.23t-19.65,12.23Q679.63,517,679.63,545.56t10.89,42.83Q699.69,600.74,710.17,600.74Z"/><path class="cls-3" d="M153.21,609.12q-17.24,0-28.06-11.27t-10.83-28.44q0-19.11,12.24-30.86t32.6-11.75q11.79,0,29.22,4.5V520.14q0-10.31-1.36-15a15.9,15.9,0,0,0-5.49-8.05q-8.26-7.51-21.77-7.51A45.41,45.41,0,0,0,149,490.73q-6.55.64-22.17,5.9l-.91-3.86-.3-3.11q24.79-7.74,41.92-7.73a63.8,63.8,0,0,1,18,2.25,35.82,35.82,0,0,1,13.35,7.19,23.87,23.87,0,0,1,7.66,11.6q1.71,5.79,1.71,17.17v84.58H188.38v-11q-9.47,8.7-17.68,12A46.32,46.32,0,0,1,153.21,609.12Zm6-7.94a33.49,33.49,0,0,0,8.16-2.15q6.65-2.67,14.21-9.55l6.75-6.12V539.14q-14.72-3.87-23.18-4.62-12.8,1.29-21,9.13-10,9.55-10,25.76,0,14.39,8.66,23.5A27.54,27.54,0,0,0,159.26,601.18Z"/><path class="cls-3" d="M19.85,607.7H0V436.07H86.86v7.41h-67v66.9l73.19.45v7.06H19.85Z"/><path class="cls-3" d="M396.63,591.21c-18.57,25.86-50.72,15.72-58.54-15.19-1-4.13-2.11-8.48-2.12-12.74-.16-41.72-.1-83.45-.1-126.13H353c0,2.61,0,32.73.12,45.25h37.3v9.23H353.22c.3,35.81,1,68.51,2.46,88.22,1.46,20.13,17.06,25.38,32.18,14C390.33,592,393.67,592.05,396.63,591.21Z"/></g></g></svg>